<?xml version="1.0" encoding="UTF-8"?>
<svg width="196px" height="171px" viewBox="0 0 196 171" version="1.1" xmlns="http://www.w3.org/2000/svg" xmlns:xlink="http://www.w3.org/1999/xlink">
    <!-- Generator: Sketch 60.1 (88133) - https://sketch.com -->
    <title>background left</title>
    <desc>Created with Sketch.</desc>
    <g id="Symbols" stroke="none" stroke-width="1" fill="none" fill-rule="evenodd" stroke-linecap="square">
        <g id="background-left" transform="translate(0.000000, 1.000000)" stroke="#DCDBE9">
            <g>
                <path d="M0,64.1493977 C42.7888507,47.8678291 73.9770774,46.6753498 93.5646802,60.5719599 C95.2676284,61.7801326 109.077809,71.0127336 114.798349,75.6113993 C126.366599,84.9109614 137.049497,97.1806573 143.937873,112.928665 C147.45104,120.960365 152.823825,134.657057 152.501548,153.000374 C152.441264,156.431597 150.940748,161.814605 148,169.149398" id="Line-2"></path>
                <path d="M0,110.149398 C27.8068269,98.4926999 50.991456,97.6881282 69.5538871,107.735683 C88.1163183,117.783237 101.265023,138.254476 109,169.149398" id="Line-3"></path>
                <path d="M0,17.1493977 C29.3720914,4.08945932 53.4121023,-1.51043123 72.1200327,0.349726049 C86.4926833,1.77882003 117.558306,4.25017985 139.312898,20.3949179 C160.03308,35.7719894 164.432802,49.963949 178.550493,66.9590224 C204.551102,98.2589175 199.845205,132.419207 164.432802,169.439891" id="Line"></path>
            </g>
        </g>
    </g>
</svg>