<?xml version="1.0" encoding="UTF-8"?>
<svg width="204px" height="371px" viewBox="0 0 204 371" version="1.1" xmlns="http://www.w3.org/2000/svg" xmlns:xlink="http://www.w3.org/1999/xlink">
    <!-- Generator: Sketch 60.1 (88133) - https://sketch.com -->
    <title>background top right</title>
    <desc>Created with Sketch.</desc>
    <g id="background-top-right" stroke="none" stroke-width="1" fill="none" fill-rule="evenodd" stroke-linecap="square">
        <g stroke="#DCDBE9">
            <path d="M84.1624761,2.84217094e-14 C86.2315282,5.82859243 89.1398211,9.57487133 92.8873548,11.2388367 C116.437305,21.6953943 131.961208,32.0876052 131.961208,37.095502 C131.961208,114.207286 65.6464131,160.341111 76.3999136,188.837319 C78.3203888,193.926477 90.164391,231.220126 92.8873548,234.50945 C126.819586,275.499376 163.791726,279.379358 203.803776,246.149398" id="Line-4"></path>
            <path d="M2.62292752,5.68434189e-14 C-2.20405654,16.8733571 -0.368701968,26.4208109 8.12899125,28.6423614 C75.2204137,46.1820608 85.0806316,61.1783153 88.3915302,74.7353956 C93.5789478,95.9762266 49.9978187,156.328996 51.4634584,169.999835 C59.1609977,241.799077 31.2888634,303.434764 47.5659766,331.154204 C75.0542682,377.965948 127.133535,382.964346 203.803776,346.149398" id="Line-5"></path>
            <path d="M42.6643414,0 C45.0146391,13.3824525 50.6711699,21.0482212 59.6339335,22.9973059 C93.1551495,30.2869871 109.470886,44.184965 111.299809,54.4660148 C117.341928,88.4309696 77.1949452,138.95964 70.8353248,157.570809 C57.9483715,195.28395 62.0010758,252.218293 75.2204137,276.275846 C102.289648,325.53849 145.150769,331.829674 203.803776,295.149398" id="Line-6"></path>
        </g>
    </g>
</svg>